<?xml version="1.0" standalone="no"?>
<!DOCTYPE svg PUBLIC "-//W3C//DTD SVG 20010904//EN"
 "http://www.w3.org/TR/2001/REC-SVG-20010904/DTD/svg10.dtd">
<svg version="1.0" xmlns="http://www.w3.org/2000/svg"
 width="2000.000000pt" height="2000.000000pt" viewBox="0 0 2000.000000 2000.000000"
 preserveAspectRatio="xMidYMid meet">

<g transform="translate(0.000000,2000.000000) scale(0.100000,-0.100000)"
fill="#000000" stroke="none">
<path d="M3581 16150 c-34 -38 -68 -70 -74 -70 -15 -1 -87 -67 -87 -80 0 -6
-8 -13 -17 -17 -57 -20 -394 -406 -617 -708 -33 -44 -63 -82 -66 -85 -4 -3
-24 -30 -45 -60 -109 -157 -257 -360 -265 -365 -6 -4 -8 -11 -5 -16 4 -5 1 -9
-4 -9 -6 0 -11 -7 -11 -15 0 -9 -11 -27 -25 -41 -14 -14 -25 -34 -25 -45 0
-12 -8 -23 -20 -26 -11 -3 -20 -12 -20 -19 0 -20 -3 -27 -20 -47 -8 -10 -16
-22 -16 -27 -1 -6 -2 -15 -3 -21 0 -5 -5 -8 -9 -5 -4 2 -14 -4 -21 -16 -10
-16 -10 -19 1 -13 8 4 7 1 -2 -7 -8 -8 -21 -20 -28 -28 -11 -13 -12 -12 -7 5
5 16 5 17 -3 5 -6 -8 -9 -17 -6 -22 3 -4 -4 -24 -15 -45 -21 -39 -29 -39 -10
0 9 19 8 20 -3 6 -7 -9 -19 -14 -25 -12 -7 3 -13 -2 -13 -9 0 -9 -13 -15 -37
-16 -48 -4 -49 -4 -63 -61 -8 -34 -17 -51 -31 -54 -13 -4 -19 -14 -19 -34 0
-19 -3 -24 -9 -15 -6 10 -10 7 -13 -12 -4 -19 -1 -26 11 -26 13 -1 12 -3 -4
-12 -11 -6 -28 -20 -38 -30 -20 -20 -70 -138 -62 -146 2 -2 -2 -11 -10 -19 -8
-8 -22 -40 -30 -71 -21 -76 -28 -86 -58 -90 -18 -2 -28 -12 -35 -32 -6 -15 -8
-31 -5 -34 4 -3 1 -6 -5 -6 -7 0 -12 -7 -12 -16 0 -11 6 -15 20 -11 18 5 19 4
5 -16 -8 -12 -16 -33 -16 -47 -1 -16 -4 -11 -8 15 l-6 40 -19 -57 c-10 -32
-24 -58 -32 -58 -7 0 -17 -22 -23 -50 -6 -28 -18 -67 -26 -86 -8 -20 -15 -46
-15 -59 0 -12 -9 -32 -20 -45 -11 -13 -20 -31 -20 -42 0 -10 -8 -37 -18 -61
-26 -59 -42 -104 -57 -162 -7 -27 -13 -43 -14 -35 -4 40 -21 -24 -27 -101 -4
-54 -11 -90 -21 -101 -18 -20 -53 -156 -53 -205 0 -22 -5 -33 -14 -33 -10 0
-17 -16 -21 -47 -3 -27 -14 -68 -23 -93 -9 -25 -15 -53 -13 -62 1 -10 -2 -18
-7 -18 -10 0 -21 -49 -26 -110 -1 -19 -5 -42 -8 -50 -3 -8 -14 -59 -23 -112
-10 -54 -21 -98 -25 -98 -13 0 -28 -48 -35 -113 -5 -47 -4 -67 4 -67 18 0 12
-48 -9 -67 -13 -13 -24 -47 -35 -107 -19 -109 -19 -106 1 -106 13 0 15 -7 10
-31 -3 -17 -6 -35 -6 -40 0 -5 -6 -9 -14 -9 -19 0 -27 -46 -32 -187 -3 -81 0
-123 6 -123 10 0 9 -22 -6 -146 l-5 -42 -167 54 c-92 29 -170 50 -173 46 -6
-7 -18 -119 -41 -397 -17 -206 -17 -1067 0 -1290 98 -1262 396 -2369 931
-3460 373 -761 811 -1415 1392 -2080 264 -303 766 -783 1114 -1066 1242 -1010
2731 -1683 4310 -1949 570 -96 931 -125 1565 -125 634 0 995 29 1565 125 1579
266 3068 939 4310 1949 348 283 850 763 1114 1066 939 1075 1591 2260 1977
3590 179 618 292 1252 346 1950 17 223 17 1084 0 1290 -23 278 -35 390 -41
397 -3 4 -81 -17 -173 -46 l-167 -54 -5 37 c-13 85 -18 191 -9 191 5 0 8 36 8
80 0 44 -3 80 -6 80 -4 0 -5 14 -4 32 3 30 -10 66 -28 79 -4 3 -10 29 -14 58
-4 39 -2 55 8 61 20 13 -4 147 -31 172 -24 22 -26 63 -4 72 9 4 12 11 7 18 -4
7 -9 33 -10 58 -4 47 -21 100 -33 100 -3 0 -15 44 -25 98 -10 53 -24 111 -31
129 -8 17 -14 39 -13 50 1 13 3 12 10 -7 8 -22 8 -22 3 5 -3 17 -8 45 -11 63
-3 17 -9 32 -14 32 -5 0 -9 10 -8 23 0 12 -9 49 -22 82 -12 33 -21 72 -21 88
0 17 -5 27 -14 27 -9 0 -14 11 -14 33 0 49 -35 185 -53 205 -10 11 -17 47 -21
102 -5 59 -12 93 -25 110 -10 14 -20 36 -23 50 -7 31 -25 81 -50 137 -10 24
-18 52 -18 62 0 11 -8 27 -17 36 -9 10 -19 33 -22 54 -6 33 -9 36 -44 39 -34
3 -37 5 -37 35 0 42 -19 107 -30 107 -6 0 -10 11 -10 25 0 14 -6 25 -12 25 -9
0 -8 4 2 10 11 7 11 10 2 10 -7 0 -10 4 -7 10 3 5 1 19 -5 30 -9 16 -8 20 5
20 19 0 19 4 -1 57 -13 32 -22 43 -42 45 -29 4 -36 14 -56 89 -9 31 -27 68
-42 84 -16 17 -22 30 -15 34 7 5 6 15 -3 33 -8 15 -12 29 -8 32 3 3 0 6 -7 6
-7 0 -9 5 -6 10 3 6 1 10 -6 10 -7 0 -10 3 -6 6 7 7 -20 36 -48 52 -17 10 -17
11 -3 12 9 0 20 5 24 12 4 6 3 8 -4 4 -6 -3 -13 2 -15 11 -4 17 -5 17 -6 1 0
-10 -6 -18 -12 -18 -6 0 -8 7 -5 16 4 10 2 13 -6 8 -8 -5 -9 0 -5 15 3 14 0
24 -8 27 -7 3 -16 23 -20 45 -5 28 -12 39 -25 39 -10 0 -20 10 -23 22 -4 12
-9 19 -13 15 -4 -3 -15 -2 -25 3 -12 7 -19 6 -22 -3 -4 -9 -6 -9 -6 1 -1 7 -5
10 -11 7 -5 -3 -10 -1 -10 5 0 7 7 10 15 6 8 -3 15 -1 15 5 0 6 -8 9 -17 7
-10 -1 -25 2 -33 7 -13 7 -13 6 -2 -7 7 -9 11 -22 10 -29 -2 -8 4 -13 12 -11
8 2 12 0 8 -3 -4 -4 2 -25 12 -46 25 -48 25 -49 -5 -49 -16 0 -25 6 -25 15 0
8 -7 15 -16 15 -13 0 -15 7 -9 40 l7 39 -36 -3 c-19 -2 -35 -1 -34 3 3 16 -23
62 -32 56 -5 -3 -10 -9 -10 -12 0 -4 3 -3 7 0 3 4 11 -3 18 -16 6 -12 8 -24 4
-27 -8 -5 168 -342 193 -370 7 -8 12 -18 11 -21 -5 -15 156 -344 167 -341 6 1
9 -2 6 -7 -3 -5 15 -43 41 -86 36 -59 44 -78 34 -85 -11 -6 0 -42 49 -166 34
-86 89 -232 121 -323 33 -91 64 -168 71 -172 6 -4 8 -16 6 -27 -4 -15 -2 -19
8 -15 8 3 14 15 15 27 0 21 0 21 9 -1 5 -13 14 -23 20 -23 5 0 10 10 10 23 1
33 59 -139 64 -189 2 -23 7 -47 11 -53 3 -7 -2 -11 -14 -11 -14 0 -21 -6 -21
-20 0 -18 16 -26 43 -21 5 1 7 -6 5 -16 -2 -10 3 -23 10 -29 8 -6 16 -32 18
-60 3 -61 59 -254 67 -234 3 8 3 -1 0 -20 -3 -24 -2 -31 5 -22 12 18 36 -71
26 -100 -4 -14 -2 -18 5 -14 7 5 9 -4 5 -26 -5 -26 -3 -30 6 -18 9 12 11 9 8
-17 -3 -18 -1 -30 3 -27 8 5 10 -3 34 -146 9 -52 25 -144 35 -205 11 -60 26
-150 35 -200 8 -49 17 -101 19 -115 3 -14 7 -47 11 -75 3 -27 8 -63 10 -80 3
-16 7 -47 10 -69 3 -21 7 -42 10 -46 3 -4 -16 -13 -40 -20 -53 -15 -51 5 -29
-235 34 -390 29 -1054 -12 -1495 -150 -1638 -747 -3184 -1743 -4515 -247 -330
-478 -594 -820 -936 -279 -279 -458 -441 -711 -645 -592 -477 -1280 -897
-1973 -1203 -126 -56 -460 -191 -549 -222 -20 -7 -34 -17 -31 -22 3 -6 1 -7
-6 -3 -6 4 -86 -18 -179 -49 -1154 -388 -2394 -531 -3627 -419 -1858 168
-3601 920 -5030 2168 -197 172 -609 582 -776 772 -1151 1306 -1882 2860 -2139
4549 -74 484 -95 785 -95 1345 1 497 10 669 60 1078 224 1830 1022 3548 2283
4919 62 68 107 123 100 123 -7 0 10 20 37 45 30 26 44 44 35 45 -9 0 -44 -31
-79 -70z m-17 -45 c-9 -14 -21 -25 -27 -25 -6 0 0 11 13 25 13 14 25 25 27 25
2 0 -4 -11 -13 -25z m14326 -1905 c0 -11 6 -20 14 -20 14 0 46 -36 46 -52 0
-5 -11 -8 -25 -8 -15 0 -25 6 -25 14 0 9 -7 12 -19 9 -25 -6 -32 8 -25 46 7
34 34 43 34 11z m77 -145 c0 -6 -6 -12 -12 -12 -6 0 -12 6 -12 12 0 6 6 12 12
12 6 0 12 -6 12 -12z m14 -28 c-10 -9 -11 -8 -5 6 3 10 9 15 12 12 3 -3 0 -11
-7 -18z m102 -177 c3 -11 3 -20 1 -20 -2 0 -8 9 -14 20 -6 11 -7 20 -2 20 6 0
12 -9 15 -20z m127 -362 c0 -5 -4 -8 -10 -8 -5 0 -10 10 -10 23 0 18 2 19 10
7 5 -8 10 -18 10 -22z m20 -43 c0 -8 -4 -15 -10 -15 -5 0 -7 7 -4 15 4 8 8 15
10 15 2 0 4 -7 4 -15z m180 -540 c0 -8 7 -15 15 -15 13 0 45 -58 45 -81 0 -5
-11 -9 -25 -9 -21 0 -26 8 -40 52 -18 61 -18 68 -5 68 6 0 10 -7 10 -15z m257
-707 c-3 -8 -6 -5 -6 6 -1 11 2 17 5 13 3 -3 4 -12 1 -19z"/>
<path d="M14158 15299 c-10 -5 -18 -21 -18 -34 0 -14 -9 -29 -20 -35 -12 -6
-32 -36 -45 -67 -29 -65 -29 -63 -11 -63 8 0 21 20 29 44 8 24 22 52 31 63 27
30 68 103 59 103 -4 0 -16 -5 -25 -11z"/>
<path d="M13994 14942 c-6 -4 -14 -17 -18 -29 -10 -33 12 -29 25 3 11 30 9 36
-7 26z"/>
<path d="M13960 14841 c0 -20 -6 -32 -19 -36 -20 -6 -31 -33 -31 -78 0 -16 -4
-36 -9 -45 -5 -10 -12 -82 -16 -161 -3 -79 -11 -155 -16 -168 -16 -43 12 -238
62 -433 17 -63 32 -122 34 -130 2 -8 22 -62 45 -120 23 -58 44 -116 47 -130 2
-14 28 -68 58 -120 29 -52 51 -98 49 -102 -3 -5 -185 -8 -405 -8 -348 0 -399
-2 -399 -15 0 -13 22 -15 135 -15 128 0 135 -1 135 -20 0 -19 7 -20 120 -20
100 0 120 -2 120 -15 0 -13 -47 -15 -352 -17 -230 -1 -311 -4 -233 -8 l120 -6
-107 -2 c-115 -2 -138 -7 -138 -28 0 -11 -23 -14 -110 -14 -60 0 -110 -4 -110
-9 0 -5 4 -11 8 -13 5 -1 7 -20 4 -40 l-4 -38 -69 0 c-62 0 -69 -2 -69 -20 0
-18 7 -20 70 -20 56 0 70 -3 70 -15 0 -13 -22 -15 -140 -15 l-140 0 0 54 c0
29 -3 68 -6 85 l-6 31 -264 0 -264 0 0 -28 0 -27 168 0 168 0 -4 -22 c-4 -23
-6 -23 -168 -23 l-164 0 0 -35 0 -35 -90 0 -90 0 0 -30 0 -30 -175 0 c-149 0
-175 -2 -175 -15 0 -13 33 -15 235 -15 228 0 235 -1 235 -20 0 -19 7 -20 195
-20 187 0 195 -1 195 -20 0 -18 8 -20 108 -23 59 -1 -153 -4 -470 -5 l-577 -2
14 -40 c8 -22 14 -44 15 -48 0 -4 38 -8 85 -10 77 -2 85 -5 85 -22 0 -19 8
-20 235 -20 150 0 235 -4 235 -10 0 -6 -108 -10 -305 -10 l-306 0 5 -52 c5
-56 24 -119 38 -129 5 -3 10 -21 13 -40 4 -30 33 -119 64 -194 33 -82 159
-490 152 -495 -10 -6 5 -50 18 -50 13 0 34 -64 22 -68 -14 -5 41 -161 59 -165
8 -3 5 -5 -9 -6 -17 -1 -21 -5 -17 -17 3 -9 6 -19 6 -24 0 -5 8 -16 18 -26 23
-23 94 -226 82 -234 -14 -8 18 -101 40 -120 10 -8 25 -38 34 -67 10 -28 23
-53 30 -56 6 -3 18 -23 26 -46 7 -22 18 -38 23 -34 6 3 7 1 3 -6 -11 -17 23
-113 37 -104 6 4 8 0 4 -10 -4 -10 -2 -17 4 -17 6 0 9 -7 5 -15 -3 -8 -1 -15
5 -15 6 0 9 -7 5 -15 -3 -8 0 -15 7 -15 8 0 7 -3 -2 -9 -11 -7 -12 -13 -4 -23
6 -7 23 -51 38 -98 15 -47 33 -91 39 -99 6 -7 27 -61 47 -120 l36 -106 126 -3
c119 -2 127 -4 127 -23 0 -19 6 -19 118 -17 77 2 116 7 115 14 -1 6 5 11 12
11 10 0 12 -4 5 -12 -6 -7 -3 -15 10 -23 14 -9 21 -9 26 0 4 6 3 8 -4 4 -6 -3
-13 -2 -16 3 -5 8 15 8 34 1 3 -1 9 -2 15 0 5 1 2 -7 -8 -17 -26 -30 -1 -58
55 -60 24 0 53 -3 66 -6 13 -4 22 -1 22 6 0 8 2 9 8 1 4 -6 14 -11 23 -11 17
0 19 13 6 34 -4 6 -3 15 3 18 6 4 9 3 8 -2 -2 -4 1 -8 7 -8 5 0 9 4 7 9 -2 5
4 3 13 -4 9 -7 14 -19 11 -26 -6 -17 5 -26 18 -14 8 6 12 2 13 -13 1 -12 -1
-17 -5 -12 -11 15 -34 17 -30 3 3 -7 18 -13 34 -14 16 -1 37 -5 47 -9 10 -4
17 -3 17 5 0 6 -4 8 -10 5 -6 -4 -7 1 -3 12 6 15 4 16 -9 5 -12 -9 -18 -10
-23 -2 -4 6 -4 14 -1 17 3 4 6 1 6 -6 0 -7 5 -9 10 -6 6 4 8 11 5 16 -4 5 -4
9 0 9 3 0 14 -15 25 -32 11 -18 22 -32 25 -30 3 1 7 1 10 1 3 -1 22 -2 43 -3
22 0 46 -7 55 -15 10 -7 17 -10 17 -6 0 4 7 2 15 -5 8 -6 34 -13 59 -15 46 -2
62 10 57 45 -2 13 -1 13 8 0 10 -14 16 -7 11 15 -1 5 2 6 7 2 4 -5 9 -17 9
-28 2 -33 4 -36 17 -36 6 0 22 -3 34 -7 18 -6 22 -4 17 7 -3 8 -15 14 -26 13
-15 -1 -22 6 -24 24 -1 14 0 19 3 11 5 -11 7 -11 15 0 7 11 8 9 6 -6 -2 -11 3
-20 10 -20 12 0 32 -22 32 -36 0 -4 -24 -9 -52 -13 -101 -12 -626 -56 -918
-77 -162 -11 -296 -22 -297 -23 -2 -1 347 -1043 775 -2315 752 -2236 777
-2311 788 -2274 7 21 190 632 408 1358 217 726 445 1480 506 1675 383 1226
483 1709 467 2255 -18 586 -149 1098 -425 1650 -120 241 -184 355 -364 648
-358 582 -504 879 -583 1185 -73 280 -82 559 -26 795 15 63 16 77 5 77 -9 0
-14 -11 -14 -29z m-1304 -1816 c-1 -13 -4 -27 -7 -30 -5 -4 -4 41 0 53 4 10 8
-2 7 -23z m324 -2955 c6 -11 8 -20 6 -20 -3 0 -10 9 -16 20 -6 11 -8 20 -6 20
3 0 10 -9 16 -20z m44 -10 c-8 -8 -15 -5 -25 7 -13 17 -13 17 5 3 18 -14 19
-13 12 5 -6 16 -5 18 5 8 9 -9 10 -16 3 -23z m32 15 c-1 -8 -5 -17 -8 -21 -5
-4 -4 16 1 34 3 9 9 -1 7 -13z m43 -22 c-15 -18 -34 -1 -25 22 5 14 9 15 21 5
12 -10 13 -16 4 -27z m41 -7 c0 -12 -5 -7 -19 24 -11 24 -11 24 3 6 9 -11 16
-24 16 -30z m181 -20 c1 5 0 14 -1 19 -1 6 2 6 6 2 5 -4 9 -19 10 -32 1 -20
-2 -23 -13 -13 -8 6 -19 21 -24 32 -10 20 -10 21 5 2 9 -11 17 -16 17 -10z
m49 4 c4 7 7 0 7 -16 0 -16 -2 -23 -4 -16 -3 6 -8 10 -12 8 -4 -3 -7 5 -8 17
0 12 1 16 4 8 4 -10 7 -10 13 -1z m42 1 c7 12 9 11 7 -1 -1 -8 -1 -22 0 -30 1
-13 2 -13 11 0 7 11 9 10 7 -9 -1 -23 -1 -23 -18 -2 -9 11 -18 18 -21 16 -2
-2 -4 6 -5 18 0 12 1 16 4 8 5 -11 7 -11 15 0z m58 -66 c0 -5 -5 -3 -10 5 -5
8 -10 20 -10 25 0 6 5 3 10 -5 5 -8 10 -19 10 -25z m86 18 c-2 -15 -25 -40
-27 -30 -1 4 -2 12 -3 17 0 6 -5 10 -11 10 -5 0 -10 -4 -10 -10 0 -11 -20 -14
-20 -2 0 4 -3 12 -7 17 -4 7 10 11 37 11 29 0 42 -5 41 -13z m209 -43 c-5 -8
-10 -8 -21 1 -12 10 -18 6 -16 -12 1 -3 -6 -6 -14 -6 -7 0 -12 3 -9 5 3 3 0
11 -5 17 -12 14 27 15 49 1 11 -7 13 -5 7 10 -5 14 -4 16 5 7 6 -6 8 -16 4
-23z m33 11 c-7 -9 -13 -18 -15 -20 -1 -2 -1 5 0 16 0 11 7 20 14 20 10 0 10
-4 1 -16z m40 -6 c-3 -3 -9 2 -12 12 -6 14 -5 15 5 6 7 -7 10 -15 7 -18z m27
16 c3 -5 2 -12 -3 -15 -5 -3 -9 1 -9 9 0 17 3 19 12 6z"/>
<path d="M13080 10064 c0 -8 5 -12 10 -9 6 4 8 11 5 16 -9 14 -15 11 -15 -7z"/>
<path d="M13533 9975 c0 -8 4 -12 9 -9 5 3 6 10 3 15 -9 13 -12 11 -12 -6z"/>
<path d="M2235 14551 c-3 -5 -2 -12 3 -15 5 -3 9 1 9 9 0 17 -3 19 -12 6z"/>
<path d="M17727 14543 c3 -7 6 -13 8 -13 2 0 5 6 8 13 3 8 -1 14 -8 14 -7 0
-11 -6 -8 -14z"/>
<path d="M5240 14499 c-162 -9 -378 -20 -480 -23 -621 -20 -932 -25 -1060 -20
l-145 7 -75 -39 -74 -39 50 -7 c77 -10 640 -9 939 2 353 13 778 36 1145 61
162 11 348 23 414 26 l119 6 -34 18 c-54 28 -107 32 -276 19 -113 -8 -158 -9
-161 -1 -4 13 14 13 -362 -10z"/>
<path d="M7576 14465 c-11 -8 -33 -15 -48 -15 -35 0 -105 -68 -132 -129 -10
-22 -23 -38 -28 -35 -5 3 -8 0 -6 -8 2 -7 -1 -13 -5 -13 -13 0 -36 -47 -37
-73 0 -13 5 -33 12 -45 7 -12 12 -31 13 -42 1 -27 21 -61 40 -69 10 -3 13 -2
10 4 -16 25 -6 166 15 222 25 68 94 148 148 172 21 10 39 24 39 32 0 8 -1 14
-1 14 -1 0 -10 -7 -20 -15z m-229 -317 c-3 -8 -6 -5 -6 6 -1 11 2 17 5 13 3
-3 4 -12 1 -19z m23 -49 c0 -6 -4 -7 -10 -4 -5 3 -10 11 -10 16 0 6 5 7 10 4
6 -3 10 -11 10 -16z"/>
<path d="M17696 14432 c-2 -4 -1 -14 4 -22 7 -11 9 -9 7 8 -1 24 -3 26 -11 14z"/>
<path d="M17729 14423 c-13 -16 -12 -17 4 -4 9 7 17 15 17 17 0 8 -8 3 -21
-13z"/>
<path d="M17754 14389 c-3 -6 -1 -16 5 -22 9 -9 10 -7 5 7 -6 15 -4 17 6 11 9
-5 11 -4 6 3 -9 15 -13 15 -22 1z"/>
<path d="M17000 13759 c0 -6 5 -20 12 -32 6 -12 12 -55 13 -97 1 -43 9 -94 19
-120 27 -71 46 -141 51 -193 3 -26 10 -70 15 -99 13 -66 13 -68 -6 -68 -14 0
-16 -8 -10 -50 4 -31 3 -50 -3 -50 -6 0 -8 -13 -4 -31 4 -21 1 -34 -8 -40 -11
-6 -8 -9 9 -9 22 0 22 -2 17 -67 -3 -38 -8 -80 -10 -95 -3 -16 0 -28 5 -28 10
0 7 -123 -4 -225 -4 -27 -13 -129 -21 -225 -20 -221 -64 -533 -77 -541 -6 -4
-7 -16 -4 -27 4 -13 2 -24 -7 -29 -20 -11 -33 -93 -15 -93 8 0 9 -3 2 -8 -6
-4 -19 -47 -28 -97 -10 -49 -21 -94 -24 -100 -4 -5 -7 -23 -8 -40 -5 -90 -196
-740 -293 -996 -20 -52 -24 -56 -68 -70 -45 -13 -48 -17 -75 -83 -23 -57 -228
-648 -998 -2876 -49 -140 -260 -752 -470 -1360 -210 -608 -519 -1501 -686
-1984 -167 -484 -302 -881 -299 -884 5 -6 224 127 380 231 993 663 1812 1522
2428 2548 918 1528 1290 3330 1057 5119 -97 739 -315 1516 -613 2181 -73 164
-264 549 -272 549 -3 0 -5 -5 -5 -11z"/>
<path d="M5270 13634 c0 -4 5 -24 12 -45 11 -38 12 -39 60 -39 41 0 48 3 48
20 0 19 7 20 100 20 82 0 100 3 100 15 0 10 -10 15 -30 15 -16 0 -30 5 -30 10
0 6 -50 10 -130 10 -71 0 -130 -3 -130 -6z"/>
<path d="M8522 13619 c-22 -8 -23 -14 -19 -57 3 -37 51 -185 90 -282 17 -40
97 -299 97 -312 0 -8 9 -25 19 -37 11 -13 18 -28 15 -36 -3 -7 2 -29 10 -50 9
-21 16 -39 16 -41 0 -2 -160 -4 -355 -4 l-355 0 0 30 c0 28 -3 30 -35 30 -24
0 -35 5 -35 15 0 13 33 15 235 15 202 0 235 2 235 15 0 13 -23 15 -145 15
l-145 0 0 24 c0 21 -6 24 -52 30 -29 3 -216 6 -415 6 l-363 0 0 85 0 85 -120
0 c-100 0 -120 3 -120 15 0 24 -37 18 -43 -7 -4 -12 -3 -25 2 -28 4 -3 6 -22
3 -42 l-4 -38 -179 0 c-172 0 -179 1 -179 20 0 19 7 20 135 20 83 0 135 4 135
10 0 6 -20 10 -45 10 -38 0 -45 3 -45 20 0 19 -7 20 -125 20 -118 0 -125 -1
-125 -20 0 -16 -7 -20 -35 -20 -28 0 -35 4 -35 20 0 19 -7 20 -90 20 l-90 0 0
30 c0 27 -3 30 -34 30 -62 0 -156 13 -156 21 0 5 54 9 120 9 113 0 120 1 120
20 0 18 7 20 65 20 51 0 65 3 65 15 0 13 -33 15 -234 15 l-234 0 -7 65 c-7 63
-8 65 -36 65 -19 0 -29 5 -29 15 0 13 -33 15 -235 15 -228 0 -235 -1 -235 -20
0 -19 -7 -20 -94 -20 -82 0 -95 -2 -98 -17 -4 -17 17 -88 102 -354 35 -109 37
-117 20 -129 -15 -10 -16 -18 -7 -46 6 -19 16 -34 23 -34 7 0 15 -6 17 -12 3
-7 6 -4 7 7 1 11 24 -45 51 -125 27 -80 45 -146 40 -148 -5 -2 -3 -23 6 -48 9
-26 19 -41 25 -37 7 3 8 1 4 -5 -11 -17 4 -60 22 -65 12 -3 10 -5 -5 -6 -13 0
-23 -5 -23 -9 0 -4 16 -55 35 -112 39 -116 38 -110 28 -109 -27 4 -31 -2 -20
-36 8 -26 16 -35 32 -35 18 0 25 -11 40 -60 10 -34 22 -57 28 -53 6 3 7 1 3
-5 -4 -7 -16 -12 -28 -12 -14 0 -18 -5 -14 -16 3 -9 9 -27 12 -40 3 -13 11
-21 17 -17 6 3 7 1 3 -6 -9 -14 162 -531 175 -531 5 0 9 6 9 13 1 25 30 -27
51 -92 12 -36 26 -72 32 -78 5 -7 7 -13 4 -13 -3 0 5 -32 19 -72 26 -78 29
-92 15 -84 -13 8 -8 -19 7 -36 6 -8 8 -18 4 -22 -4 -4 -1 -6 7 -4 9 2 24 -29
48 -99 19 -58 40 -103 47 -103 7 0 21 -27 31 -60 10 -33 23 -60 29 -60 7 0 31
-60 55 -132 24 -73 47 -137 51 -143 4 -5 20 -48 35 -95 15 -47 33 -88 39 -92
6 -4 25 -49 42 -100 l31 -93 56 -3 c52 -3 57 -1 57 18 0 19 6 20 120 20 113 0
120 1 120 20 0 19 7 20 115 20 108 0 115 1 115 20 0 19 7 20 155 20 148 0 155
1 155 20 0 19 7 20 160 20 153 0 160 1 160 20 0 19 7 20 175 20 149 0 175 2
175 15 0 13 33 15 235 15 228 0 235 1 235 20 0 20 7 20 330 20 323 0 330 0
330 20 0 19 7 20 231 20 l231 0 -6 -22 c-4 -13 -13 -48 -21 -78 -8 -30 -43
-147 -77 -259 l-63 -204 -325 7 c-774 16 -1611 60 -2389 126 -190 17 -345 29
-346 27 -5 -5 1601 -4767 1607 -4767 7 0 1729 5162 1730 5189 2 18 -1194 3301
-1202 3300 -3 0 -16 -4 -28 -10z m-1482 -624 c0 -12 -14 -15 -65 -15 -51 0
-65 3 -65 15 0 12 14 15 65 15 51 0 65 -3 65 -15z m820 -170 l0 -25 -252 2
c-139 1 -202 4 -140 5 104 3 112 5 112 23 0 19 7 20 140 20 l140 0 0 -25z
m939 -155 l10 -30 -345 0 c-223 0 -344 4 -344 10 0 6 40 10 100 10 93 0 100 1
100 20 0 19 7 20 234 20 l234 0 11 -30z m-726 -17 c-7 -2 -19 -2 -25 0 -7 3
-2 5 12 5 14 0 19 -2 13 -5z m-2169 -1114 c-2 -4 0 -11 6 -14 6 -4 8 -16 4
-27 -4 -15 -3 -18 6 -13 8 5 11 4 6 -3 -3 -6 -2 -13 4 -17 5 -3 10 -12 10 -18
0 -7 -4 -6 -10 3 -8 12 -10 12 -10 1 0 -20 -10 -8 -15 18 -2 11 -7 26 -10 31
-13 21 -13 47 0 47 8 0 12 -4 9 -8z m180 -521 c-5 -8 -1 -9 12 -4 10 4 15 4
11 0 -4 -4 -1 -14 6 -23 6 -8 -3 -5 -21 8 -18 12 -30 27 -26 32 3 5 10 7 15 3
5 -3 6 -10 3 -16z"/>
<path d="M5896 11517 c3 -10 9 -15 12 -12 3 3 0 11 -7 18 -10 9 -11 8 -5 -6z"/>
<path d="M2716 13199 c-3 -13 -7 -55 -10 -94 -9 -126 -15 -155 -52 -248 -54
-137 -154 -418 -154 -433 0 -8 -4 -14 -10 -14 -11 0 -52 -128 -45 -140 6 -10
-12 -62 -24 -70 -8 -5 -111 -374 -111 -397 0 -6 -5 -13 -10 -15 -6 -2 -13 -30
-16 -63 -3 -33 -11 -73 -19 -90 -18 -41 -35 -117 -35 -157 0 -19 -4 -38 -9
-44 -15 -15 -42 -188 -47 -295 -2 -56 -8 -129 -14 -163 -5 -33 -10 -106 -11
-161 0 -55 -3 -119 -6 -143 -5 -42 -6 -42 -38 -36 -28 5 -33 3 -38 -18 -3 -12
-11 -142 -18 -288 -28 -623 24 -1279 152 -1915 460 -2285 1922 -4268 3982
-5399 194 -106 318 -169 324 -163 2 3 -224 630 -502 1393 -672 1842 -2186
5988 -2224 6089 -16 44 -231 631 -476 1305 -480 1316 -574 1573 -580 1579 -2
2 -6 -7 -9 -20z"/>
<path d="M12420 13172 c0 -4 54 -8 120 -7 66 0 120 3 120 7 0 5 -54 8 -120 8
-66 0 -120 -4 -120 -8z"/>
<path d="M5487 12780 c3 -11 7 -20 9 -20 2 0 4 9 4 20 0 11 -4 20 -9 20 -5 0
-7 -9 -4 -20z"/>
<path d="M18538 12560 c9 -27 17 -48 19 -46 7 6 -19 96 -27 96 -5 0 -1 -22 8
-50z"/>
<path d="M18501 12508 c27 -87 30 -91 24 -28 -2 30 -9 56 -15 58 -5 2 -10 10
-10 18 0 8 -4 14 -9 14 -5 0 0 -28 10 -62z"/>
<path d="M18530 12411 c1 -16 39 -135 40 -126 1 6 10 -14 21 -44 13 -38 16
-57 8 -61 -7 -5 -4 -13 8 -25 10 -10 24 -32 31 -49 9 -23 11 -24 7 -6 -3 14
-9 41 -12 60 -3 19 -9 37 -13 40 -10 6 -50 154 -49 178 0 9 6 -1 14 -23 l13
-40 1 35 c0 19 -3 40 -7 46 -8 12 -62 25 -62 15z"/>
<path d="M18651 12054 c0 -11 3 -14 6 -6 3 7 2 16 -1 19 -3 4 -6 -2 -5 -13z"/>
<path d="M18647 11984 c-12 -12 -8 -26 5 -18 7 5 8 3 4 -5 -10 -16 2 -81 14
-81 6 0 7 20 4 48 -7 49 -16 67 -27 56z"/>
<path d="M18718 11805 c2 -14 6 -25 8 -25 2 0 4 11 4 25 0 14 -4 25 -9 25 -4
0 -6 -11 -3 -25z"/>
<path d="M18722 11580 c0 -14 2 -19 5 -12 2 6 2 18 0 25 -3 6 -5 1 -5 -13z"/>
<path d="M13172 10057 c-7 -8 -7 -18 -2 -27 6 -8 10 -13 11 -10 0 3 2 15 5 28
4 25 1 28 -14 9z"/>
<path d="M13582 9968 c-16 -16 -15 -25 2 -25 8 0 14 9 13 19 -2 21 0 21 -15 6z"/>
<path d="M9836 8407 c-165 -479 -334 -973 -377 -1097 -74 -213 -572 -1663
-1057 -3075 -121 -352 -315 -916 -432 -1254 -116 -337 -210 -614 -208 -616 6
-5 183 -54 323 -89 424 -106 900 -181 1385 -218 213 -16 847 -16 1060 0 694
53 1304 171 1930 374 85 28 159 53 163 57 4 4 -6 36 -22 72 -16 35 -267 714
-556 1509 -290 795 -829 2271 -1197 3280 -369 1009 -677 1856 -686 1883 -9 26
-18 47 -21 47 -3 0 -141 -393 -305 -873z"/>
</g>
</svg>
